<?xml version="1.0" standalone="no"?>
<!DOCTYPE svg PUBLIC "-//W3C//DTD SVG 20010904//EN"
 "http://www.w3.org/TR/2001/REC-SVG-20010904/DTD/svg10.dtd">
<svg version="1.0" xmlns="http://www.w3.org/2000/svg"
 width="1280.000000pt" height="1280.000000pt" viewBox="0 0 1280.000000 1280.000000"
 preserveAspectRatio="xMidYMid meet">
<metadata>
Created by potrace 1.11, written by Peter Selinger 2001-2013
</metadata>
<g transform="translate(0.000000,1280.000000) scale(0.100000,-0.100000)"
fill="#000000" stroke="none">
<path d="M1246 12791 c-3 -5 -32 -12 -63 -15 -32 -4 -71 -11 -88 -16 -110 -32
-151 -45 -160 -52 -5 -4 -16 -8 -25 -8 -22 -1 -202 -93 -273 -141 -53 -35
-164 -127 -218 -179 -40 -39 -141 -161 -178 -217 -59 -88 -134 -243 -166 -343
-40 -129 -43 -141 -51 -203 -3 -31 -10 -60 -15 -63 -12 -7 -12 -10314 0
-10314 5 0 12 -26 16 -57 7 -63 10 -74 50 -203 144 -455 563 -841 1020 -939
28 -6 73 -16 100 -23 39 -10 1176 -13 5204 -15 2938 -2 5159 1 5165 6 6 5 34
12 61 16 234 33 500 164 706 346 205 183 373 467 428 724 6 28 16 73 23 100
10 39 13 1175 15 5199 2 2998 -1 5154 -6 5160 -5 6 -12 36 -16 66 -27 210
-148 477 -294 650 -186 221 -410 375 -661 455 -135 42 -142 44 -203 51 -32 4
-60 11 -63 15 -7 12 -10301 12 -10308 0z m5224 -1471 c100 -13 205 -42 275
-78 197 -99 395 -300 555 -562 110 -181 254 -503 343 -770 51 -153 125 -403
151 -510 23 -99 53 -226 72 -313 10 -44 26 -84 36 -94 22 -19 28 -18 273 57
325 100 651 173 1010 227 169 25 639 26 770 1 450 -85 712 -292 801 -634 25
-93 25 -309 2 -414 -74 -326 -269 -678 -587 -1055 -195 -232 -452 -495 -679
-695 -84 -75 -84 -89 11 -170 113 -99 512 -503 618 -627 356 -417 559 -771
636 -1113 24 -105 24 -321 -1 -415 -79 -306 -319 -520 -681 -608 -453 -111
-1079 -43 -1920 208 -120 36 -225 65 -232 65 -28 0 -44 -44 -88 -245 -24 -111
-77 -313 -110 -425 -9 -30 -20 -68 -24 -85 -24 -89 -152 -445 -190 -530 -57
-126 -170 -348 -211 -415 -168 -275 -352 -460 -555 -560 -123 -60 -218 -82
-350 -82 -339 2 -636 218 -903 659 -81 134 -225 436 -263 553 -4 14 -22 63
-39 110 -35 96 -76 223 -114 355 -14 50 -30 104 -35 120 -12 37 -83 332 -106
437 -10 46 -24 83 -36 94 -18 16 -23 16 -72 2 -28 -9 -137 -40 -242 -71 -885
-260 -1542 -310 -1987 -152 -290 104 -474 290 -551 560 -23 83 -28 301 -8 400
70 345 273 706 639 1135 139 162 402 431 570 582 77 70 132 127 132 138 0 10
-34 48 -77 86 -43 38 -158 147 -256 244 -524 514 -843 969 -975 1390 -34 107
-44 181 -44 320 -1 151 10 213 53 307 10 24 19 47 19 51 0 15 101 156 143 200
129 133 332 228 600 279 75 14 145 18 377 17 259 0 301 -3 465 -28 325 -49
646 -124 993 -231 97 -30 184 -55 193 -55 32 0 49 39 83 191 47 205 90 371
141 539 53 175 64 207 95 290 17 47 35 96 39 110 32 99 162 376 244 520 235
412 525 648 847 689 36 5 65 9 65 10 0 0 39 -4 85 -9z"/>
<path d="M6314 10691 c-59 -27 -173 -145 -244 -253 -118 -180 -242 -448 -341
-741 -89 -264 -229 -817 -229 -904 0 -42 8 -47 223 -138 169 -71 203 -86 332
-145 33 -15 120 -55 193 -89 73 -34 143 -61 154 -61 12 0 69 22 127 49 58 27
149 69 201 94 52 24 194 86 315 137 121 51 228 100 238 108 19 17 23 79 8 128
-5 16 -17 67 -26 114 -18 83 -87 365 -105 425 -172 582 -367 995 -562 1188
-38 38 -88 77 -111 88 -53 24 -120 24 -173 0z"/>
<path d="M3030 8685 c-179 -19 -268 -47 -334 -105 -52 -46 -66 -79 -66 -153 0
-302 423 -884 1068 -1470 159 -145 167 -150 195 -143 13 3 72 43 132 89 134
101 422 307 567 406 59 40 109 80 112 89 2 9 7 49 10 87 26 317 52 564 77 741
7 45 9 93 5 108 -8 33 -35 45 -276 119 -127 39 -379 107 -465 126 -22 5 -74
16 -115 26 -170 38 -347 63 -555 80 -218 16 -204 16 -355 0z"/>
<path d="M9440 8689 c-315 -21 -731 -104 -1117 -224 -46 -14 -118 -36 -162
-49 -43 -13 -92 -31 -109 -40 -52 -27 -56 -43 -38 -179 33 -261 55 -477 71
-699 8 -109 14 -117 154 -210 141 -95 359 -251 506 -362 135 -103 154 -115
176 -116 34 0 371 312 596 553 276 295 499 605 592 824 124 288 74 410 -194
477 -57 14 -277 38 -327 35 -12 -1 -79 -6 -148 -10z"/>
<path d="M5402 8108 c-18 -23 -31 -91 -34 -188 l-3 -95 29 2 c30 2 215 102
254 136 42 39 29 53 -108 110 -111 46 -125 50 -138 35z"/>
<path d="M7300 8092 c-168 -72 -190 -91 -146 -129 34 -29 215 -130 248 -138
39 -10 43 8 30 137 -10 107 -28 158 -55 158 -6 0 -41 -13 -77 -28z"/>
<path d="M6315 7624 c-81 -41 -222 -117 -360 -194 -16 -9 -57 -32 -90 -50
-163 -90 -523 -311 -545 -335 l-25 -27 -5 -306 c-3 -169 -3 -448 0 -619 l5
-313 30 -29 c81 -79 1019 -611 1078 -611 40 0 635 329 942 521 143 90 144 91
156 130 11 38 14 1145 4 1202 -4 19 -19 46 -33 60 -80 76 -1020 608 -1072 607
-8 -1 -46 -17 -85 -36z m268 -764 c161 -60 279 -210 307 -390 42 -266 -146
-517 -418 -560 -150 -23 -307 28 -416 136 -100 98 -146 210 -146 355 0 113 25
195 88 285 54 76 134 139 223 174 104 42 251 42 362 0z"/>
<path d="M4557 6540 c-42 -28 -97 -71 -124 -95 l-48 -45 48 -45 c64 -59 196
-147 216 -143 14 3 16 27 16 188 0 161 -2 185 -16 188 -9 2 -50 -20 -92 -48z"/>
<path d="M8137 6583 c-4 -3 -7 -87 -7 -185 0 -198 2 -203 61 -172 29 15 151
102 201 144 10 8 18 20 18 27 0 18 -59 70 -156 136 -82 55 -103 64 -117 50z"/>
<path d="M3853 5977 c-24 -14 -283 -249 -395 -360 -117 -116 -273 -285 -348
-377 -25 -30 -47 -57 -50 -60 -3 -3 -28 -34 -56 -70 -235 -300 -374 -574 -374
-737 0 -74 14 -107 66 -153 195 -171 848 -148 1579 55 33 10 74 21 90 25 160
42 399 124 419 144 21 21 20 28 -8 251 -14 110 -46 428 -61 617 -5 54 -12 85
-26 102 -11 14 -91 73 -177 132 -86 59 -237 166 -334 238 -312 231 -286 215
-325 193z"/>
<path d="M8794 5909 c-128 -97 -490 -356 -591 -423 -102 -66 -110 -79 -118
-184 -17 -238 -39 -454 -71 -695 -17 -131 -17 -139 -1 -160 22 -30 253 -104
607 -195 459 -119 855 -166 1145 -138 215 21 336 70 384 157 21 36 23 51 19
122 -6 96 -22 146 -88 282 -105 213 -323 508 -561 759 -52 54 -97 104 -101
110 -6 10 -279 268 -398 376 -43 39 -91 70 -107 70 -7 0 -61 -36 -119 -81z"/>
<path d="M5364 4966 c-8 -21 12 -214 26 -250 5 -14 17 -29 26 -33 16 -6 136
41 212 84 69 39 61 50 -98 141 -121 70 -157 82 -166 58z"/>
<path d="M7384 4970 c-38 -15 -219 -121 -237 -139 -10 -10 -15 -24 -11 -34 8
-23 209 -117 249 -117 23 0 43 74 50 188 7 106 7 112 -11 111 -11 0 -29 -4
-40 -9z"/>
<path d="M6370 4434 c-8 -3 -37 -16 -65 -29 -113 -54 -267 -125 -270 -125 -2
0 -39 -16 -82 -36 -43 -20 -99 -44 -124 -54 -26 -11 -66 -28 -90 -39 -24 -11
-69 -30 -99 -41 -30 -12 -74 -33 -97 -46 -53 -31 -54 -41 -13 -225 174 -788
418 -1385 670 -1640 80 -81 131 -109 201 -109 70 0 112 22 195 105 242 238
497 844 653 1550 17 77 36 156 41 176 6 20 10 55 10 77 0 53 -1 54 -224 147
-97 41 -202 86 -233 101 -32 14 -74 33 -93 41 -19 9 -96 45 -170 80 -131 63
-179 78 -210 67z"/>
</g>
</svg>
