<svg version="1" xmlns="http://www.w3.org/2000/svg" width="1200" height="1200" viewBox="0 0 900.000000 900.000000"><path d="M52 3.9C28.3 10.3 10 28.7 3.9 52.3 2.1 59.3 2 71.2 2 450.1c0 375 .1 390.8 1.8 397.5 6.5 24.4 23.7 41.9 47.9 48.5l7.8 2.2H450c367.3 0 390.9-.1 397.5-1.8 23.2-5.7 43.3-25.8 49-49 1.7-6.6 1.8-30.2 1.8-397.5V59.5l-2.2-8c-5.3-19.2-17.7-34.1-35.5-42.8-15-7.3 23.4-6.7-411.2-6.6C80 2.2 58.1 2.3 52 3.9zM828.5 388v119.5l-34.5.3c-23.5.2-35.9-.1-39-.9-2.5-.6-5.3-1.3-6.2-1.6-1.7-.4-1.8-5.2-1.8-81.9V342h-53.2c-29.3 0-57.6.5-62.8 1-13.4 1.3-29 6.9-40 14.3-20.8 14-38 39.9-44.6 67.2-2.6 11-2.7 34-.1 44 8.8 33.7 33.5 64.2 60.4 74.7 16.3 6.3 29.4 7.8 70.4 7.8 23.5 0 29.4.3 33.2 1.6l4.7 1.6-.2 34.6-.3 34.7H676c-39.8 0-52.9-1-69.5-5.2-26.5-6.7-49.7-18.4-69.5-34.9-9.6-8-26.7-25.4-31.2-31.9-5-7.1-15.5-25.6-19.5-34.3-17.7-39-20-86.4-6.1-127.2 7.5-22.1 26.5-53.1 41.3-67.5 7.7-7.4 21.3-18.9 28.2-23.8 14.2-10 41.4-21.8 58.8-25.5 21.7-4.6 28.2-4.9 135.5-4.8l84.5.1V388zM335 270.6c10.5 2 28.6 7.6 35.4 11.1 13.9 7 31.1 21.2 42.2 34.8 6.9 8.4 15 24.9 19.5 39.5 3.2 10.5 3.2 10.6 3.3 33 .1 20.8-.1 23.1-2.3 30.5-8.7 29.9-32.7 59.5-59.5 73.6-3.4 1.8-6.3 3.3-6.5 3.5-.2.2 2.4 3.7 5.8 8 7.3 9 11.5 15.4 16.3 24.9 8.7 17.2 14.9 36.7 16.8 53 3.2 27.3 3.3 29.4 2.4 35.1l-.9 5.9h-72l-.2-7c-1.2-32.9-10.5-55.5-31.3-76.5-17.5-17.6-32.1-25.5-56.3-30-9.6-1.9-15-2-87.9-2-42.7 0-78.3-.3-79.2-.6-1.4-.6-1.6-12-1.6-119.5V269h123.8c109.5 0 124.7.2 132.2 1.6zM144.3 544.5c22.7 10.4 29.9 38.1 14.9 57.7-4.5 6-17.9 15.2-26.9 18.5-11.6 4.2-25.2 2.6-35.8-4.1-6.4-4.2-10-8.4-13.9-16.6-2.8-6-3.1-7.3-3.1-16.5.1-8.7.4-10.7 2.8-15.8 3.2-6.8 10.4-14.8 16.5-18.4 7-4.2 19.4-7.1 30.3-7.2 8.4-.1 10.4.2 15.2 2.4zm658.3.1c18.9 4.8 28.4 12.8 33.5 28.1 2.7 8.1 2.3 17.9-1.2 26.8-3.2 8.3-13 18.1-21.4 21.4-13.7 5.4-24.9 3.7-42.1-6.4-10.5-6.2-14-9.8-18.6-19.2-2.8-5.9-3.3-7.8-3.3-14.8 0-11.5 3.1-19.1 11-27 11.2-11.3 23.3-13.8 42.1-8.9z"/><path d="M168 389v48.1l79.3-.3 79.2-.3 5.5-2.3c7.9-3.4 15.6-9.2 20.2-15.3 16.3-21.5 15.3-46.3-2.6-64.3-7.5-7.6-15.5-11.1-28.3-12.6-5.1-.6-39.3-1-81-1H168v48z"/></svg>