<?xml version="1.0" standalone="no"?>
<!DOCTYPE svg PUBLIC "-//W3C//DTD SVG 20010904//EN"
 "http://www.w3.org/TR/2001/REC-SVG-20010904/DTD/svg10.dtd">
<svg version="1.0" xmlns="http://www.w3.org/2000/svg"
 width="1280.000000pt" height="1280.000000pt" viewBox="0 0 1280.000000 1280.000000"
 preserveAspectRatio="xMidYMid meet">
<metadata>
Created by potrace 1.11, written by Peter Selinger 2001-2013
</metadata>
<g transform="translate(0.000000,1280.000000) scale(0.100000,-0.100000)"
fill="#000000" stroke="none">
<path d="M1180 12790 c0 -5 -17 -10 -37 -10 -21 0 -55 -6 -78 -14 -22 -8 -60
-19 -85 -26 -25 -7 -58 -18 -75 -25 -16 -7 -43 -18 -60 -25 -65 -26 -166 -83
-228 -126 -26 -19 -49 -34 -52 -34 -10 0 -87 -71 -177 -162 -143 -145 -272
-362 -329 -553 -6 -22 -18 -58 -25 -80 -8 -23 -14 -55 -14 -72 0 -18 -4 -35
-10 -38 -13 -8 -14 -10437 -1 -10451 5 -5 11 -27 14 -49 5 -41 24 -115 38
-150 4 -11 15 -42 25 -70 25 -69 101 -216 158 -302 44 -67 192 -228 277 -300
66 -57 236 -157 334 -197 22 -10 48 -21 57 -26 10 -6 26 -10 36 -10 10 0 22
-4 27 -9 11 -10 91 -30 150 -38 22 -3 44 -9 50 -14 12 -12 10419 -12 10459 0
17 5 65 17 106 27 41 9 79 21 85 25 5 5 17 9 27 9 10 0 41 11 70 25 28 14 55
25 58 25 10 0 194 101 200 110 3 4 14 12 26 18 69 36 278 242 336 331 10 14
22 33 28 41 54 77 160 294 160 328 0 10 4 22 9 27 4 6 16 44 25 85 10 41 22
89 27 106 12 40 12 10447 0 10459 -5 6 -11 28 -14 50 -8 59 -28 139 -38 150
-5 5 -9 17 -9 27 0 10 -4 26 -10 36 -5 9 -17 35 -26 57 -24 58 -68 149 -75
155 -3 3 -14 21 -25 40 -10 19 -21 37 -24 40 -3 3 -18 25 -34 50 -38 58 -248
268 -306 306 -25 16 -47 31 -50 34 -3 3 -14 10 -25 16 -11 6 -47 26 -80 44
-77 42 -82 45 -130 65 -22 9 -48 20 -57 25 -10 6 -25 10 -33 10 -8 0 -23 4
-33 9 -24 12 -100 32 -147 38 -22 3 -44 9 -49 14 -14 13 -10446 12 -10446 -1z
m5428 -1510 c299 -85 550 -343 782 -800 117 -231 238 -545 315 -815 9 -33 21
-71 25 -85 13 -37 108 -428 116 -476 3 -23 16 -59 28 -80 34 -61 54 -61 245
-3 697 212 1334 306 1722 255 252 -34 353 -62 514 -144 72 -37 108 -64 181
-137 77 -76 98 -105 137 -185 26 -52 54 -122 63 -155 22 -85 30 -268 14 -363
-33 -200 -174 -510 -340 -746 -130 -185 -239 -323 -349 -445 -130 -143 -296
-311 -440 -444 -179 -167 -220 -220 -207 -271 3 -13 65 -76 138 -142 329 -294
639 -638 839 -929 238 -346 369 -684 369 -948 0 -219 -69 -380 -230 -536 -134
-129 -356 -227 -610 -267 -134 -21 -409 -29 -533 -16 -56 7 -122 14 -147 16
-85 9 -205 26 -255 36 -27 6 -84 17 -125 25 -205 40 -425 95 -645 160 -233 69
-240 71 -285 67 -37 -4 -44 -9 -56 -38 -8 -19 -19 -58 -25 -87 -6 -28 -15 -77
-21 -107 -23 -113 -100 -406 -143 -540 -44 -140 -51 -160 -100 -290 -237 -639
-539 -1049 -881 -1198 -252 -110 -476 -90 -732 65 -135 83 -303 261 -435 465
-20 31 -37 59 -37 62 0 4 -12 25 -26 48 -26 41 -154 292 -154 301 0 3 -14 35
-30 71 -71 154 -175 466 -270 816 -25 90 -60 250 -60 271 0 27 -23 108 -39
137 -22 41 -90 34 -301 -33 -47 -14 -110 -33 -140 -41 -30 -8 -77 -21 -105
-29 -192 -55 -601 -137 -800 -160 -330 -38 -527 -34 -780 17 -122 24 -165 38
-280 91 -160 72 -255 150 -351 283 -240 335 -131 841 315 1454 200 276 421
513 809 869 110 101 116 113 86 177 -9 19 -73 87 -143 151 -495 458 -832 869
-1030 1259 -147 290 -189 513 -142 749 62 306 292 528 636 615 287 72 603 76
1035 14 278 -40 823 -172 1069 -258 46 -17 85 -13 112 11 19 16 36 72 74 238
24 105 51 213 85 335 166 601 402 1104 653 1391 166 190 366 310 572 343 66
10 241 -3 313 -24z"/>
<path d="M6327 10750 c-110 -35 -261 -226 -400 -505 -41 -82 -138 -315 -158
-375 -4 -14 -19 -56 -34 -95 -46 -123 -165 -547 -195 -695 -6 -25 -19 -85 -30
-134 -27 -122 -27 -176 3 -204 13 -12 106 -57 208 -100 101 -44 288 -127 415
-185 143 -66 244 -107 264 -107 20 0 130 45 289 117 141 64 324 145 406 180
83 35 165 74 182 86 53 36 53 35 -18 362 -9 43 -42 173 -82 325 -24 88 -132
423 -155 480 -5 14 -18 45 -27 70 -24 62 -77 183 -123 279 -92 197 -237 398
-337 466 -45 31 -63 38 -117 41 -34 2 -76 -1 -91 -6z"/>
<path d="M2935 8724 c-162 -29 -244 -71 -290 -150 -26 -44 -29 -58 -29 -139 0
-137 55 -275 199 -500 198 -308 445 -590 833 -948 176 -162 196 -177 237 -177
37 1 47 6 171 101 118 90 368 268 514 366 58 39 116 82 129 96 25 27 25 31 51
322 15 179 28 299 47 440 29 224 23 250 -69 297 -77 39 -484 159 -673 198
-290 61 -288 60 -542 95 -143 19 -467 19 -578 -1z"/>
<path d="M9330 8730 c-25 -5 -74 -11 -110 -15 -66 -7 -222 -33 -360 -59 -91
-17 -312 -72 -450 -112 -279 -82 -370 -117 -402 -158 -22 -27 -23 -107 -4
-248 16 -119 31 -252 46 -423 27 -303 27 -307 47 -334 11 -14 55 -50 99 -80
185 -127 419 -292 547 -388 184 -137 178 -137 324 -6 488 440 827 837 1010
1183 86 162 108 230 108 340 0 106 -10 135 -69 193 -55 55 -104 74 -286 107
-56 11 -439 10 -500 0z"/>
<path d="M5382 8133 c-15 -30 -31 -105 -37 -183 -6 -66 -5 -78 13 -100 33 -43
64 -37 195 37 65 37 123 76 129 86 12 23 -17 72 -62 105 -88 65 -218 95 -238
55z"/>
<path d="M7254 8121 c-81 -44 -110 -68 -127 -102 -17 -35 -9 -58 24 -75 10 -5
63 -35 118 -66 54 -32 110 -58 124 -58 30 0 55 22 63 56 9 36 -10 192 -29 237
-16 36 -17 37 -69 37 -39 0 -66 -8 -104 -29z"/>
<path d="M6335 7691 c-6 -5 -53 -30 -105 -56 -234 -118 -840 -477 -901 -535
-23 -22 -41 -51 -48 -78 -9 -30 -12 -214 -12 -617 0 -546 1 -577 19 -618 24
-53 18 -49 327 -234 429 -257 739 -423 787 -423 45 0 341 159 743 398 251 150
336 204 351 223 33 42 36 87 36 657 0 632 -1 641 -61 695 -40 36 -372 240
-556 342 -27 15 -95 53 -150 85 -224 128 -314 170 -370 170 -28 0 -55 -4 -60
-9z m205 -828 c148 -41 262 -147 312 -290 19 -56 23 -87 22 -178 -1 -125 -14
-165 -82 -247 -112 -134 -265 -205 -423 -196 -159 9 -351 141 -416 285 -22 50
-26 72 -26 158 -1 158 42 265 145 360 127 118 294 156 468 108z"/>
<path d="M4600 6613 c-45 -9 -216 -145 -205 -163 3 -5 1 -11 -5 -15 -16 -10
-12 -55 7 -73 9 -9 55 -45 102 -79 69 -51 93 -63 123 -63 61 0 70 29 66 217
-3 139 -5 156 -22 169 -20 14 -23 15 -66 7z"/>
<path d="M8129 6604 c-10 -13 -15 -55 -17 -173 -3 -186 3 -205 63 -209 35 -2
51 5 124 58 47 33 93 68 103 77 51 46 -4 132 -151 233 -44 30 -102 37 -122 14z"/>
<path d="M3860 6022 c-35 -6 -149 -106 -418 -367 -299 -289 -580 -648 -715
-912 -67 -130 -94 -209 -108 -311 -14 -99 -2 -149 52 -207 85 -92 256 -135
541 -135 233 0 445 27 768 96 298 65 741 198 798 241 30 22 32 28 32 82 0 31
-6 102 -14 157 -8 54 -19 153 -26 219 -6 66 -15 161 -20 210 -5 50 -12 137
-16 195 -7 129 -25 172 -92 218 -294 206 -391 275 -564 403 -142 105 -171 120
-218 111z"/>
<path d="M8874 6016 c-17 -8 -74 -47 -127 -87 -96 -74 -308 -226 -467 -334
-47 -32 -108 -77 -136 -101 -60 -50 -70 -79 -79 -224 -11 -177 -44 -506 -65
-650 -22 -149 -14 -177 57 -213 121 -62 729 -223 1023 -271 203 -33 262 -39
472 -43 176 -4 232 -2 300 12 173 35 255 75 305 148 26 38 28 49 27 127 -1 92
-16 156 -62 265 -115 275 -403 657 -759 1005 -134 131 -300 285 -378 351 -29
24 -75 31 -111 15z"/>
<path d="M5356 5002 c-14 -23 -17 -118 -6 -183 25 -149 55 -166 191 -108 89
38 149 75 149 92 0 62 -205 207 -292 207 -20 0 -39 -4 -42 -8z"/>
<path d="M7335 4997 c-11 -7 -43 -25 -70 -41 -101 -59 -164 -130 -146 -164 9
-17 70 -51 168 -93 113 -48 156 -6 170 166 3 39 1 86 -4 105 -9 33 -12 35 -54
37 -24 1 -53 -4 -64 -10z"/>
<path d="M6225 4424 c-66 -30 -140 -64 -165 -75 -25 -12 -69 -32 -99 -46 -29
-13 -119 -53 -200 -88 -269 -116 -286 -131 -271 -246 9 -66 20 -118 64 -304
168 -708 432 -1302 672 -1514 135 -119 250 -107 389 41 190 201 377 589 539
1118 47 154 127 482 158 644 20 111 -11 149 -182 221 -36 16 -104 45 -151 66
-47 22 -88 39 -92 39 -5 0 -128 57 -317 148 -77 37 -107 46 -160 49 -61 3 -72
0 -185 -53z"/>
</g>
</svg>
