<?xml version="1.0" standalone="no"?>
<!DOCTYPE svg PUBLIC "-//W3C//DTD SVG 20010904//EN"
 "http://www.w3.org/TR/2001/REC-SVG-20010904/DTD/svg10.dtd">
<svg version="1.0" xmlns="http://www.w3.org/2000/svg"
 width="512.000000pt" height="512.000000pt" viewBox="0 0 512.000000 512.000000"
 preserveAspectRatio="xMidYMid meet">
<metadata>
Created by potrace 1.11, written by Peter Selinger 2001-2013
</metadata>
<g transform="translate(0.000000,512.000000) scale(0.100000,-0.100000)"
fill="#000000" stroke="none">
<path d="M436 5104 c-203 -49 -372 -220 -421 -425 -13 -56 -15 -316 -15 -2119
0 -2266 -4 -2113 63 -2249 44 -90 159 -206 248 -249 137 -66 -15 -62 2249 -62
2265 0 2113 -4 2249 63 89 43 205 159 248 248 67 136 63 -16 63 2249 0 2265 4
2113 -63 2249 -43 89 -159 205 -248 248 -136 67 17 63 -2254 62 -1749 -1
-2069 -3 -2119 -15z m2241 -596 c73 -27 190 -140 251 -244 78 -134 158 -353
206 -566 16 -72 28 -103 37 -102 8 1 69 18 137 38 371 108 661 119 834 30 41
-21 97 -73 123 -114 33 -53 47 -104 46 -176 -1 -187 -128 -400 -397 -671
l-141 -143 141 -142 c210 -213 335 -392 380 -549 20 -68 22 -174 5 -226 -85
-261 -442 -317 -992 -157 -67 20 -128 37 -136 38 -9 1 -21 -30 -37 -102 -48
-213 -128 -432 -206 -566 -61 -104 -178 -217 -251 -244 -75 -29 -159 -29 -234
0 -77 28 -191 141 -255 253 -80 137 -190 451 -213 609 -4 25 -10 48 -14 50 -4
3 -56 -11 -117 -29 -325 -99 -624 -125 -791 -69 -254 85 -316 321 -157 606 63
114 162 236 310 386 l141 142 -141 143 c-148 149 -247 271 -310 385 -101 181
-115 344 -41 462 125 198 464 228 957 84 68 -20 129 -37 137 -38 9 -1 21 30
37 102 48 214 124 422 202 557 63 109 178 225 252 253 74 28 162 28 237 0z"/>
<path d="M2475 4227 c-57 -59 -125 -187 -175 -332 -30 -86 -82 -280 -95 -355
l-6 -35 175 -77 c97 -43 180 -78 186 -78 24 0 360 155 360 166 0 35 -83 334
-119 429 -78 205 -172 335 -243 335 -25 0 -42 -11 -83 -53z"/>
<path d="M1205 3470 c-129 -15 -165 -49 -146 -136 28 -122 184 -328 403 -531
l89 -82 120 89 c67 49 140 102 164 117 l43 27 7 81 c4 44 13 130 20 190 8 61
10 113 7 117 -25 25 -378 111 -502 123 -131 12 -146 12 -205 5z"/>
<path d="M3740 3469 c-47 -4 -131 -17 -188 -28 -105 -22 -332 -87 -344 -99 -3
-4 -1 -56 7 -117 7 -60 16 -146 20 -190 l7 -81 43 -27 c24 -15 98 -68 164
-117 l121 -89 92 86 c283 264 451 521 395 607 -31 47 -158 69 -317 55z"/>
<path d="M2156 3228 c-3 -13 -7 -42 -9 -66 l-5 -42 61 35 c67 37 78 50 50 58
-10 2 -35 12 -55 21 -37 16 -38 16 -42 -6z"/>
<path d="M2898 3227 c-26 -12 -46 -26 -45 -30 1 -4 30 -23 64 -42 l61 -35 -5
42 c-6 63 -13 88 -21 87 -4 0 -28 -11 -54 -22z"/>
<path d="M2490 3029 c-175 -97 -271 -152 -315 -181 l-50 -33 -5 -128 c-3 -70
-3 -184 0 -254 l5 -127 45 -31 c74 -49 373 -215 389 -215 17 0 298 155 381
209 l55 36 5 128 c3 70 3 184 0 254 l-5 128 -50 33 c-49 32 -175 104 -307 176
-36 20 -72 36 -80 36 -7 0 -38 -14 -68 -31z m182 -305 c125 -88 113 -269 -22
-342 -95 -50 -215 -11 -268 88 -50 95 -11 215 88 268 63 33 143 28 202 -14z"/>
<path d="M1808 2604 c-27 -20 -48 -40 -48 -44 0 -9 93 -80 104 -80 3 0 6 36 6
80 0 44 -3 80 -7 80 -5 0 -29 -17 -55 -36z"/>
<path d="M3250 2560 c0 -44 2 -80 5 -80 10 0 105 72 105 80 0 9 -93 80 -104
80 -3 0 -6 -36 -6 -80z"/>
<path d="M1467 2322 c-216 -197 -380 -414 -408 -537 -10 -46 -10 -57 4 -79 49
-74 285 -78 572 -11 109 26 266 73 277 83 3 4 1 57 -7 117 -7 61 -16 146 -20
190 l-7 81 -43 27 c-24 15 -97 68 -164 117 l-120 89 -84 -77z"/>
<path d="M3520 2363 c-45 -35 -245 -179 -266 -191 -9 -6 -40 -247 -48 -371 -1
-20 7 -27 54 -43 345 -120 735 -146 797 -52 51 78 -87 304 -335 550 -59 58
-118 114 -132 124 -25 17 -26 17 -70 -17z"/>
<path d="M2143 1986 c4 -10 7 -34 7 -54 0 -60 9 -66 68 -40 28 13 50 27 49 31
-1 4 -31 24 -66 44 -48 27 -63 32 -58 19z"/>
<path d="M2912 1963 c-34 -19 -62 -38 -62 -41 1 -10 102 -53 109 -47 4 5 20
117 17 122 -1 1 -29 -14 -64 -34z"/>
<path d="M2490 1746 c-25 -13 -100 -47 -167 -76 -68 -29 -123 -58 -123 -65 0
-36 82 -333 119 -430 77 -203 172 -335 241 -335 69 0 164 132 241 335 36 95
119 394 119 429 0 13 -339 166 -367 166 -10 -1 -38 -11 -63 -24z"/>
</g>
</svg>
