<svg id="Layer_1" enable-background="new 0 0 512.004 512.004" fill="#1565c0" height="512" viewBox="0 0 512.004 512.004" width="512" xmlns="http://www.w3.org/2000/svg"><g><path d="m163.683 202.442c-1.159-2.801-3.918-4.631-6.93-4.631-2.743 0-5.292 1.505-6.606 3.953-.357.668-.166.295-8.762 21.412l-15.07-33.576c-1.697-3.779-6.136-5.468-9.914-3.771-3.778 1.696-5.467 6.134-3.771 9.914l22.249 49.57c1.198 2.672 3.921 4.431 6.84 4.431h.003.003c3.015 0 5.802-1.868 6.942-4.674l8.088-19.869 8.089 19.869c1.171 2.881 3.99 4.674 6.942 4.674h.003.003c2.865 0 5.616-1.701 6.84-4.431l22.249-49.57c1.695-3.779.007-8.218-3.771-9.914-3.774-1.695-8.217-.008-9.914 3.771l-15.07 33.576c-.061-.149-8.379-20.585-8.443-20.734z"/><path d="m198.197 242.242v2.49c0 4.142 3.357 7.5 7.5 7.5s7.5-3.358 7.5-7.5v-2.49c0-4.142-3.357-7.5-7.5-7.5s-7.5 3.358-7.5 7.5z"/><path d="m296.082 242.242v2.49c0 4.142 3.357 7.5 7.5 7.5s7.5-3.358 7.5-7.5v-2.49c0-4.142-3.357-7.5-7.5-7.5s-7.5 3.358-7.5 7.5z"/><path d="m36.319 397.691h165.641v21.777c0 9.137-4.398 17.747-11.479 22.47l-18.745 12.504h-14.902c-9.649 0-17.5 7.85-17.5 17.5v11.197c0 9.649 7.851 17.5 17.5 17.5h81.667c4.143 0 7.5-3.358 7.5-7.5s-3.357-7.5-7.5-7.5h-81.667c-1.379 0-2.5-1.121-2.5-2.5v-11.197c0-1.378 1.121-2.5 2.5-2.5h198.335c1.378 0 2.499 1.121 2.499 2.5v11.197c0 1.378-1.121 2.5-2.499 2.5h-81.668c-4.143 0-7.5 3.358-7.5 7.5s3.357 7.5 7.5 7.5h81.668c9.649 0 17.499-7.85 17.499-17.5v-11.197c0-9.649-7.85-17.5-17.499-17.5h-14.903l-18.745-12.504c-7.08-4.723-11.478-13.333-11.478-22.47v-21.777h165.64c20.026 0 36.319-16.293 36.319-36.32v-297.995c0-20.027-16.293-36.32-36.319-36.32h-154.622c-19.626-10.26-41.58-15.69-64.501-15.69-22.922 0-44.877 5.429-64.503 15.69h-155.738c-20.026.001-36.319 16.294-36.319 36.32v297.995c0 20.027 16.293 36.32 36.319 36.32zm276.879 56.725.038.025h-114.468l.038-.025c11.367-7.583 18.154-20.647 18.154-34.948v-21.777h78.085v21.777c0 14.301 6.786 27.365 18.153 34.948zm28.838-394.003c-5.429 5.142-11.24 9.731-17.365 13.755-2.734-7.191-5.862-13.989-9.381-20.286-3.978-7.117-8.332-13.396-12.988-18.805 14.85 5.885 28.312 14.541 39.734 25.336zm38.841 82.996h-43.138c-.581-19.207-3.4-37.694-8.212-54.543 8.088-4.988 15.713-10.842 22.769-17.52 16.456 19.767 26.939 44.713 28.581 72.063zm-8.356-70.157h93.287v22.088h-81.226c-3.286-7.554-7.357-15.063-12.061-22.088zm-108.461-46.06c14.131 3.098 27.457 14.898 38.138 34.008 3.526 6.308 6.617 13.193 9.279 20.515-14.656 7.214-30.69 11.457-47.417 12.435zm0 81.988c18.278-.952 35.829-5.387 51.948-12.986 3.893 14.644 6.203 30.608 6.734 47.215h-58.682zm151.14 49.229c4.715 0 8.551 3.836 8.551 8.552v34.45c0 4.142 3.357 7.5 7.5 7.5s7.5-3.358 7.5-7.5v-34.45c0-12.986-10.564-23.552-23.551-23.552h-19.302c-.653-11.755-2.723-22.97-5.798-33.068h75.707v241.154h-419.611v-241.154h76.821c-3.069 10.079-5.146 21.328-5.798 33.068h-19.301c-12.986 0-23.552 10.565-23.552 23.552v100.993c0 12.986 10.565 23.551 23.552 23.551h317.282c12.986 0 23.551-10.565 23.551-23.551v-31.543c0-4.142-3.357-7.5-7.5-7.5s-7.5 3.358-7.5 7.5v31.543c0 4.715-3.836 8.551-8.551 8.551h-317.282c-4.716 0-8.552-3.836-8.552-8.551v-100.993c0-4.715 3.836-8.552 8.552-8.552zm-369.004-63.068v-22.089h30.035v22.088h-30.035zm82.34 0h-37.305v-22.089h49.366c-4.79 7.153-8.856 14.712-12.061 22.089zm32.287-23.996c7.056 6.678 14.681 12.533 22.769 17.521-4.812 16.849-7.631 35.336-8.212 54.543h-43.138c1.544-25.732 11.089-51.052 28.581-72.064zm29.554 72.064c.531-16.607 2.841-32.571 6.734-47.215 16.118 7.599 33.67 12.034 51.949 12.986v34.229zm58.683-116.217v66.958c-16.728-.978-32.762-5.22-47.418-12.435 8.15-22.416 24.013-49.393 47.418-54.523zm-38.244 7.885c-9.738 11.31-17.064 25.135-22.369 39.091-6.124-4.024-11.935-8.613-17.365-13.755 11.422-10.796 24.884-19.451 39.734-25.336zm-195.816 28.299c0-11.756 9.563-21.32 21.319-21.32h132.899c-6.055 4.891-11.789 10.299-17.026 16.196-10.836 0-97.215 0-109.349 0-6.422 0-11.646 5.225-11.646 11.646v284.949c0 6.422 5.225 11.647 11.646 11.647h426.318c6.422 0 11.646-5.225 11.646-11.647 0-12.676 0-260.121 0-284.949 0-6.421-5.225-11.646-11.646-11.646h-108.235c-5.323-5.994-11.075-11.39-17.026-16.196h131.785c11.756 0 21.319 9.564 21.319 21.32v297.995c0 11.756-9.563 21.32-21.319 21.32-7.058 0-432.739 0-439.365 0-11.756 0-21.319-9.564-21.319-21.32v-297.995z"/><path d="m261.567 202.442c-1.159-2.801-3.918-4.631-6.93-4.631-2.743 0-5.292 1.505-6.606 3.953-.357.668-.166.295-8.762 21.412l-15.07-33.576c-1.697-3.779-6.136-5.468-9.914-3.771-3.778 1.696-5.467 6.134-3.771 9.914l22.249 49.57c1.198 2.672 3.921 4.431 6.84 4.431h.003.003c3.015 0 5.802-1.868 6.942-4.674l8.088-19.869 8.089 19.869c1.171 2.881 3.99 4.674 6.942 4.674h.003.003c2.865 0 5.616-1.701 6.84-4.431l22.249-49.57c1.695-3.779.007-8.218-3.771-9.914-3.774-1.695-8.217-.008-9.914 3.771l-15.07 33.576c-.061-.149-8.379-20.585-8.443-20.734z"/><path d="m359.452 202.442c-1.159-2.801-3.918-4.631-6.93-4.631-2.743 0-5.292 1.505-6.606 3.953-.357.668-.166.295-8.762 21.412l-15.07-33.576c-1.697-3.779-6.136-5.468-9.914-3.771-3.778 1.696-5.467 6.134-3.771 9.914l22.249 49.57c1.198 2.672 3.921 4.431 6.84 4.431h.003.003c3.015 0 5.802-1.868 6.942-4.674l8.088-19.869 8.089 19.869c1.171 2.881 3.99 4.674 6.942 4.674h.003.003c2.865 0 5.616-1.701 6.84-4.431l22.249-49.57c1.695-3.779.007-8.218-3.771-9.914-3.774-1.695-8.217-.008-9.914 3.771l-15.07 33.576c-.061-.149-8.379-20.585-8.443-20.734z"/></g></svg>