<svg id="Layer_1" enable-background="new 0 0 511.774 511.774" fill="#1565c0" height="512" viewBox="0 0 511.774 511.774" width="512" xmlns="http://www.w3.org/2000/svg"><g><path d="m261.51 428.133c.103-.117.206-.234.304-.356l175.045-214.078c2.211-2.68 2.222-6.582.169-9.283l-17.786-24.354c-2.442-3.345-7.134-4.078-10.48-1.633-3.345 2.443-4.076 7.135-1.633 10.48l9.16 12.543h-87.199l43.6-59.702 11.078 15.168c2.443 3.345 7.134 4.077 10.48 1.633 3.345-2.443 4.076-7.135 1.633-10.48l-17.134-23.462c-1.386-1.903-3.708-3.09-6.089-3.076h-233.425c-2.291 0-4.732 1.241-6.085 3.116l-58.254 79.768c-2.052 2.699-2.041 6.604.169 9.283l89.026 108.878c3.373 3.274 6.891 3.627 10.554 1.059 3.207-2.622 3.681-7.347 1.059-10.554l-79.012-96.631h95.178l47.589 174.602-37.677-46.079c-2.623-3.206-7.346-3.68-10.554-1.059-3.207 2.622-3.681 7.347-1.059 10.554l59.945 73.311c2.858 3.549 8.334 3.724 11.398.352zm-5.549-33.567-48.547-178.114h97.093zm-43.6-193.114 43.6-59.702 43.6 59.702zm-14.764-5.217-43.6-59.702h87.2zm217.635 20.217-142.767 174.602 47.589-174.602zm-100.907-20.217-43.6-59.702h87.199zm-218.692 5.217 43.6-59.702 43.6 59.702z"/><path d="m416.83 103.228c1.92 0 3.841-.733 5.306-2.199l21.418-21.437c6.854-6.86-3.758-17.462-10.611-10.602l-21.418 21.437c-4.45 4.454-.989 12.801 5.305 12.801z"/><path d="m477.173 204.643c.643 0 1.297-.083 1.948-.258l27.209-7.297c9.366-2.513 5.482-16.996-3.886-14.488l-27.209 7.297c-8.39 2.251-6.44 14.746 1.938 14.746z"/><path d="m440.191 298.153-13.209-3.542c-9.367-2.509-13.252 11.976-3.886 14.488l13.209 3.542c9.039 2.421 13.151-12.003 3.886-14.488z"/><path d="m505.883 315.77-38.667-10.37c-9.367-2.507-13.252 11.975-3.886 14.488l38.667 10.37c9.039 2.421 13.151-12.002 3.886-14.488z"/><path d="m375.48 365.906c-6.854-6.861-17.465 3.742-10.611 10.602l34.793 34.825c6.854 6.861 17.465-3.742 10.611-10.602z"/><path d="m431.906 422.383c-6.854-6.86-17.465 3.742-10.611 10.602l10.427 10.437c6.854 6.861 17.465-3.742 10.611-10.602z"/><path d="m315.433 452.357-2.544-9.503c-2.509-9.367-16.997-5.489-14.49 3.879l2.544 9.503c2.464 9.204 17.005 5.52 14.49-3.879z"/><path d="m323.046 480.794c-2.508-9.368-16.997-5.489-14.49 3.879l5.778 21.585c.991 3.702 5.511 6.289 9.185 5.306 4.001-1.071 6.376-5.183 5.306-9.185z"/><path d="m301.512 88.501c3.673.985 8.194-1.604 9.184-5.305l3.464-12.938c2.508-9.367-11.983-13.247-14.489-3.879l-3.464 12.938c-1.071 4.001 1.304 8.114 5.305 9.184z"/><path d="m312.335 48.075c3.673.983 8.193-1.603 9.185-5.306l8.971-33.511c2.507-9.368-11.983-13.246-14.49-3.879l-8.971 33.511c-1.071 4.002 1.304 8.114 5.305 9.185z"/><path d="m89.638 101.029c6.854 6.861 17.465-3.742 10.611-10.602l-21.418-21.436c-6.854-6.861-17.465 3.742-10.611 10.602z"/><path d="m5.444 197.088 27.209 7.297c9.039 2.421 13.151-12.003 3.886-14.488l-27.209-7.297c-9.366-2.51-13.252 11.976-3.886 14.488z"/><path d="m84.792 294.61-13.209 3.542c-9.242 2.48-5.073 16.889 3.886 14.488l13.209-3.542c9.366-2.512 5.48-16.994-3.886-14.488z"/><path d="m44.557 305.401-38.666 10.369c-9.243 2.48-5.073 16.888 3.886 14.488l38.667-10.37c9.365-2.512 5.482-16.992-3.887-14.487z"/><path d="m136.294 365.906-34.793 34.825c-6.854 6.859 3.757 17.463 10.611 10.602l34.793-34.825c6.854-6.861-3.758-17.462-10.611-10.602z"/><path d="m79.867 422.383-10.427 10.437c-6.854 6.859 3.757 17.463 10.611 10.602l10.427-10.437c6.855-6.86-3.757-17.461-10.611-10.602z"/><path d="m208.069 437.549c-4-1.07-8.113 1.304-9.185 5.306l-2.544 9.503c-2.438 9.111 11.954 13.35 14.49 3.879l2.544-9.503c1.072-4.002-1.303-8.114-5.305-9.185z"/><path d="m197.913 475.488c-3.999-1.07-8.113 1.304-9.185 5.306l-5.778 21.585c-2.438 9.111 11.954 13.35 14.49 3.879l5.778-21.585c1.071-4.002-1.304-8.113-5.305-9.185z"/><path d="m202.919 61.074c-4.001 1.071-6.376 5.183-5.305 9.184l3.464 12.938c2.463 9.205 17.005 5.519 14.489-3.879l-3.464-12.938c-1.072-4.001-5.186-6.38-9.184-5.305z"/><path d="m190.254 42.769c2.465 9.204 17.006 5.519 14.49-3.879l-8.971-33.511c-2.508-9.368-16.997-5.489-14.49 3.879z"/></g></svg>